<?xml version="1.0" encoding="UTF-8"?>
<svg id="_레이어_2" data-name="레이어 2" xmlns="http://www.w3.org/2000/svg" viewBox="0 0 440.92 154.72">
  <defs>
    <style>
      .cls-1 {
        fill: #b7904d;
      }

      .cls-2 {
        fill: #494949;
      }

      .cls-3 {
        fill: #c79b54;
      }
    </style>
  </defs>
  <g id="_레이어_1-2" data-name="레이어 1">
    <g>
      <g>
        <path class="cls-3" d="M197.38,145.13c2.4,2.59,5.49,3.88,9.29,3.88,1.7,0,3.08-.34,4.16-1.02,1.08-.68,1.61-1.63,1.61-2.86,0-1.09-.32-1.84-.96-2.27-.66-.45-1.54-.69-2.63-.73l-5.2-.47c-2.47-.23-4.48-1.09-6.02-2.57-1.59-1.44-2.4-3.45-2.44-6.03,.04-3.11,1.1-5.44,3.19-7,2.04-1.55,4.61-2.33,7.74-2.33,1.35,0,2.57,.09,3.64,.26,1.08,.19,2.08,.47,3.03,.82,1.81,.76,3.43,1.78,4.86,3.06l-3.65,4.4c-1.13-.84-2.33-1.54-3.59-2.09-1.24-.49-2.68-.73-4.3-.73-1.85,0-3.14,.34-3.88,1.02-.77,.68-1.16,1.56-1.16,2.63-.04,.68,.25,1.27,.88,1.78,.57,.57,1.57,.93,3,1.08l4.87,.38c3.06,.23,5.26,1.19,6.62,2.86,1.26,1.64,1.9,3.71,1.9,6.22-.04,2.94-1.2,5.2-3.48,6.8-2.26,1.64-5.15,2.47-8.67,2.51-4.78,0-9.08-1.81-12.91-5.42l4.11-4.17Z"/>
        <path class="cls-3" d="M223.71,139.21c0-3.19,.26-5.65,.76-7.36,.53-1.67,1.34-3.08,2.43-4.23,.81-1,1.94-1.9,3.39-2.7,1.43-.75,3.27-1.15,5.51-1.19,2.32,.04,4.19,.44,5.62,1.2,1.41,.8,2.5,1.7,3.27,2.71,1.17,1.15,1.99,2.56,2.48,4.23,.47,1.71,.7,4.16,.7,7.35s-.24,5.62-.71,7.29c-.49,1.67-1.32,3.12-2.48,4.34-.38,.45-.84,.89-1.38,1.31-.49,.49-1.12,.9-1.89,1.25-1.43,.84-3.3,1.27-5.62,1.31-2.24-.04-4.08-.48-5.5-1.31-1.45-.76-2.58-1.61-3.39-2.57-1.09-1.22-1.9-2.67-2.43-4.34-.51-1.67-.76-4.1-.76-7.29Zm18.28,.06c0-2.16-.09-3.74-.28-4.74-.19-.95-.58-1.79-1.16-2.52-.43-.68-1.07-1.22-1.92-1.61-.81-.41-1.76-.62-2.83-.62-1,0-1.93,.21-2.77,.62-.81,.39-1.47,.93-1.98,1.61-.51,.72-.88,1.56-1.1,2.52-.23,1-.34,2.55-.34,4.68s.11,3.65,.34,4.62c.22,.99,.6,1.87,1.1,2.63,.51,.59,1.17,1.1,1.98,1.55,.85,.43,1.77,.64,2.77,.64,1.07,0,2.02-.22,2.83-.64,.85-.45,1.49-.96,1.92-1.55,.59-.76,.97-1.64,1.16-2.63,.19-.97,.28-2.5,.28-4.56Z"/>
        <path class="cls-3" d="M255.02,111.87h5.88v34.72c0,1.38,.73,2.07,2.21,2.07h2.04v5.71h-2.62c-2.15,0-3.91-.55-5.31-1.66-1.46-1.12-2.2-3.01-2.2-5.66v-35.18Z"/>
        <path class="cls-3" d="M270.41,124.11h5.88v18.04c0,2.04,.55,3.64,1.66,4.79,1.09,1.15,2.49,1.72,4.18,1.72s3.08-.58,4.15-1.72c1.09-1.15,1.64-2.75,1.64-4.79v-18.04h5.88v30.26h-5.89v-3.23h-.11c-1.94,2.39-4.47,3.59-7.59,3.59-2.43-.04-4.62-.95-6.58-2.74-2.13-1.75-3.21-4.32-3.24-7.74v-20.13Z"/>
        <path class="cls-3" d="M302.83,114.9h5.88v9.21h4.29v4.66h-4.29v17.64c-.04,1.53,.66,2.28,2.09,2.24h2.2v5.71h-3.07c-2.07,0-3.76-.66-5.07-1.98-1.35-1.26-2.03-3.09-2.03-5.47v-18.14h-2.96v-4.66h2.96v-9.21Z"/>
        <path class="cls-3" d="M319.24,111.87h5.88v6.06h-5.88v-6.06Zm0,12.24h5.88v30.26h-5.88v-30.26Z"/>
        <path class="cls-3" d="M331.91,139.21c0-3.19,.26-5.65,.76-7.36,.53-1.67,1.34-3.08,2.43-4.23,.81-1,1.94-1.9,3.39-2.7,1.43-.75,3.27-1.15,5.51-1.19,2.32,.04,4.19,.44,5.62,1.2,1.41,.8,2.5,1.7,3.27,2.71,1.17,1.15,1.99,2.56,2.48,4.23,.47,1.71,.7,4.16,.7,7.35s-.24,5.62-.71,7.29c-.49,1.67-1.32,3.12-2.48,4.34-.38,.45-.84,.89-1.38,1.31-.49,.49-1.12,.9-1.89,1.25-1.43,.84-3.3,1.27-5.62,1.31-2.24-.04-4.08-.48-5.5-1.31-1.45-.76-2.58-1.61-3.39-2.57-1.09-1.22-1.9-2.67-2.43-4.34-.51-1.67-.76-4.1-.76-7.29Zm18.28,.06c0-2.16-.09-3.74-.28-4.74-.19-.95-.58-1.79-1.16-2.52-.43-.68-1.07-1.22-1.92-1.61-.81-.41-1.76-.62-2.83-.62-1,0-1.93,.21-2.77,.62-.81,.39-1.47,.93-1.98,1.61-.51,.72-.88,1.56-1.1,2.52-.23,1-.34,2.55-.34,4.68s.11,3.65,.34,4.62c.22,.99,.6,1.87,1.1,2.63,.51,.59,1.17,1.1,1.98,1.55,.85,.43,1.77,.64,2.77,.64,1.07,0,2.02-.22,2.83-.64,.85-.45,1.49-.96,1.92-1.55,.59-.76,.97-1.64,1.16-2.63,.19-.97,.28-2.5,.28-4.56Z"/>
        <path class="cls-3" d="M363.22,124.11h5.88v3.21h.11c1.94-2.39,4.47-3.59,7.62-3.59,2.43,0,4.65,.88,6.66,2.65,1.99,1.79,3.04,4.41,3.13,7.87v20.11h-5.88v-18.04c0-2.12-.55-3.74-1.64-4.85-1.07-1.13-2.46-1.69-4.15-1.69s-3.09,.57-4.18,1.69c-1.11,1.11-1.66,2.72-1.66,4.85v18.04h-5.88v-30.26Z"/>
      </g>
      <g>
        <path class="cls-2" d="M199.77,60.26h5.88v6.06h-5.88v-6.06Zm0,12.24h5.88v30.26h-5.88v-30.26Z"/>
        <path class="cls-2" d="M213.91,72.5h5.88v3.21h.11c1.94-2.39,4.47-3.59,7.62-3.59,2.43,0,4.65,.88,6.66,2.65,1.99,1.79,3.04,4.41,3.13,7.87v20.11h-5.88v-18.04c0-2.12-.55-3.74-1.64-4.85-1.07-1.13-2.46-1.69-4.15-1.69s-3.09,.57-4.18,1.69c-1.11,1.11-1.66,2.73-1.66,4.85v18.04h-5.88v-30.26Z"/>
        <path class="cls-2" d="M246.32,63.29h5.88v9.21h4.29v4.66h-4.29v17.64c-.04,1.53,.66,2.28,2.09,2.24h2.2v5.71h-3.07c-2.07,0-3.76-.66-5.07-1.98-1.35-1.26-2.03-3.09-2.03-5.47v-18.14h-2.96v-4.66h2.96v-9.21Z"/>
        <path class="cls-2" d="M266.98,89.93c0,2.43,.68,4.28,2.03,5.54,1.26,1.28,2.92,1.93,4.97,1.93,2.39,0,4.53-.98,6.41-2.94l4.27,3.76c-2.99,3.3-6.51,4.93-10.56,4.89-1.54,0-3.05-.23-4.52-.7-.73-.25-1.45-.59-2.15-1.02-.73-.37-1.42-.82-2.06-1.37-1.24-1.13-2.25-2.7-3.02-4.72-.85-1.95-1.27-4.47-1.27-7.58s.37-5.48,1.1-7.46c.73-2.02,1.68-3.61,2.82-4.78,1.17-1.18,2.48-2.04,3.92-2.56,1.43-.53,2.84-.79,4.23-.79,3.35,.04,6.18,1.17,8.49,3.41,2.35,2.27,3.55,5.4,3.59,9.39v5.01h-18.27Zm12.39-5.01c-.08-2.36-.69-4.15-1.84-5.36-1.13-1.15-2.58-1.73-4.36-1.73s-3.23,.57-4.36,1.73c-1.11,1.21-1.73,3-1.84,5.36h12.39Z"/>
        <path class="cls-2" d="M292.41,60.26h5.88v34.72c0,1.38,.73,2.07,2.21,2.07h2.04v5.71h-2.62c-2.15,0-3.91-.55-5.31-1.66-1.46-1.12-2.2-3.01-2.2-5.66V60.26Z"/>
        <path class="cls-2" d="M307.8,60.26h5.88v34.72c0,1.38,.73,2.07,2.21,2.07h2.04v5.71h-2.62c-2.15,0-3.91-.55-5.31-1.66-1.46-1.12-2.2-3.01-2.2-5.66V60.26Z"/>
        <path class="cls-2" d="M323.36,60.26h5.88v6.06h-5.88v-6.06Zm0,12.24h5.88v30.26h-5.88v-30.26Z"/>
        <path class="cls-2" d="M353.97,99.6c-1.94,2.26-4.46,3.43-7.56,3.51-1.9-.04-3.48-.46-4.74-1.26-1.32-.76-2.32-1.57-3.02-2.45-.77-1-1.33-2.21-1.66-3.65-.36-1.42-.53-4.12-.53-8.11s.18-6.82,.53-8.26c.34-1.42,.89-2.61,1.66-3.59,.7-.95,1.7-1.79,3.02-2.55,1.26-.71,2.84-1.09,4.74-1.13,2.91,0,5.43,1.2,7.56,3.59v-3.21h5.88v29.53c-.07,4.55-1.34,7.89-3.81,10.03-2.48,2.19-5.45,3.29-8.91,3.29-3.96-.08-7.35-1.77-10.15-5.06l4.57-3.75c.75,.72,1.62,1.34,2.59,1.85,1,.57,2.03,.87,3.1,.91,2.01,0,3.63-.58,4.85-1.73,1.2-1.17,1.82-2.79,1.86-4.86v-3.1Zm-11.63-11.94c0,2.32,.07,3.92,.22,4.8,.13,.92,.44,1.68,.93,2.28,.39,.55,.99,1.04,1.81,1.49,.77,.55,1.73,.82,2.88,.82s2.11-.27,2.88-.82c.77-.45,1.35-.94,1.75-1.49,.49-.61,.82-1.37,.99-2.28,.11-.88,.17-2.48,.17-4.8s-.06-4-.17-4.91c-.17-.92-.5-1.66-.99-2.22-.4-.55-.98-1.08-1.75-1.61-.77-.44-1.73-.69-2.88-.73-1.15,.04-2.11,.29-2.88,.73-.81,.53-1.42,1.06-1.81,1.61-.49,.57-.8,1.31-.93,2.22-.15,.91-.22,2.55-.22,4.91Z"/>
        <path class="cls-2" d="M372.91,89.93c0,2.43,.68,4.28,2.03,5.54,1.26,1.28,2.92,1.93,4.97,1.93,2.39,0,4.53-.98,6.41-2.94l4.27,3.76c-2.99,3.3-6.51,4.93-10.56,4.89-1.54,0-3.05-.23-4.52-.7-.73-.25-1.45-.59-2.15-1.02-.73-.37-1.42-.82-2.06-1.37-1.24-1.13-2.25-2.7-3.02-4.72-.85-1.95-1.27-4.47-1.27-7.58s.37-5.48,1.1-7.46c.73-2.02,1.68-3.61,2.82-4.78,1.17-1.18,2.48-2.04,3.92-2.56,1.43-.53,2.84-.79,4.23-.79,3.35,.04,6.18,1.17,8.49,3.41,2.35,2.27,3.55,5.4,3.59,9.39v5.01h-18.27Zm12.39-5.01c-.08-2.36-.69-4.15-1.84-5.36-1.13-1.15-2.58-1.73-4.36-1.73s-3.23,.57-4.36,1.73c-1.11,1.21-1.73,3-1.84,5.36h12.39Z"/>
        <path class="cls-2" d="M398.33,72.5h5.88v3.21h.11c1.94-2.39,4.47-3.59,7.62-3.59,2.43,0,4.65,.88,6.66,2.65,1.99,1.79,3.04,4.41,3.13,7.87v20.11h-5.88v-18.04c0-2.12-.55-3.74-1.64-4.85-1.07-1.13-2.46-1.69-4.15-1.69s-3.09,.57-4.18,1.69c-1.11,1.11-1.66,2.73-1.66,4.85v18.04h-5.88v-30.26Z"/>
        <path class="cls-2" d="M430.75,63.29h5.88v9.21h4.29v4.66h-4.29v17.64c-.04,1.53,.66,2.28,2.09,2.24h2.2v5.71h-3.07c-2.07,0-3.76-.66-5.07-1.98-1.35-1.26-2.03-3.09-2.03-5.47v-18.14h-2.96v-4.66h2.96v-9.21Z"/>
      </g>
      <path class="cls-1" d="M167.58,48.63C167.58,21.77,145.81,0,118.95,0s-48.63,21.77-48.63,48.63v57.26l.03-.21c0,10.78-8.74,19.52-19.52,19.52s-19.52-8.74-19.52-19.52l.03,.21V52.26c0-8.05-6.52-14.57-14.57-14.57s-14.57,6.52-14.57,14.57v53.63c0,26.86,21.77,48.63,48.63,48.63s48.63-21.77,48.63-48.63V48.63c0-10.76,8.72-19.49,19.49-19.49s19.49,8.72,19.49,19.49v91.32c0,8.05,6.52,14.57,14.57,14.57s14.57-6.52,14.57-14.57V48.63"/>
      <g>
        <path class="cls-2" d="M32.38,16.42c0,8.94-7.25,16.19-16.19,16.19S0,25.36,0,16.42,7.25,.23,16.19,.23s16.19,7.25,16.19,16.19Z"/>
        <path class="cls-2" d="M2.2,105.89c0,8.05,6.52,14.57,14.57,14.57s14.57-6.52,14.57-14.57l-.03-.21,.03,.21V52.26c0-8.05-6.52-14.57-14.57-14.57s-14.57,6.52-14.57,14.57v53.63Z"/>
      </g>
    </g>
  </g>
</svg>